<svg width="40" height="40" viewBox="0 0 40 40" fill="none" xmlns="http://www.w3.org/2000/svg">
<rect width="40" height="40" rx="20" fill="#0563BD"/>
<path d="M28.17 17.23L14.17 11.45C13.6403 11.2308 13.0588 11.168 12.4945 11.2689C11.9302 11.3699 11.4066 11.6305 10.9858 12.0197C10.5649 12.409 10.2644 12.9108 10.1198 13.4655C9.97526 14.0203 9.99268 14.6049 10.17 15.15L11.71 20L10.13 24.85C9.94788 25.3974 9.92742 25.9856 10.0711 26.5443C10.2147 27.103 10.5164 27.6084 10.94 28C11.4847 28.5051 12.1973 28.7901 12.94 28.8C13.3347 28.7998 13.7255 28.7216 14.09 28.57L28.14 22.79C28.6872 22.5625 29.1547 22.1779 29.4836 21.685C29.8125 21.192 29.988 20.6126 29.988 20.02C29.988 19.4274 29.8125 18.8481 29.4836 18.3551C29.1547 17.8621 28.6872 17.4776 28.14 17.25L28.17 17.23ZM13.36 26.7C13.1836 26.7728 12.9901 26.7936 12.8022 26.7599C12.6144 26.7262 12.4402 26.6395 12.3 26.51C12.168 26.3839 12.073 26.224 12.0254 26.0477C11.9778 25.8714 11.9794 25.6855 12.03 25.51L13.49 21H27.22L13.36 26.7ZM13.49 19L12 14.53C11.9494 14.3546 11.9478 14.1686 11.9954 13.9923C12.043 13.8161 12.138 13.6562 12.27 13.53C12.3641 13.4313 12.4774 13.3529 12.603 13.2996C12.7285 13.2463 12.8636 13.2192 13 13.22C13.1341 13.2203 13.2667 13.2475 13.39 13.3L27.22 19H13.49Z" fill="white"/>
</svg>
